<?xml version="1.0" standalone="no"?>
<!DOCTYPE svg PUBLIC "-//W3C//DTD SVG 20010904//EN"
 "http://www.w3.org/TR/2001/REC-SVG-20010904/DTD/svg10.dtd">
<svg version="1.0" xmlns="http://www.w3.org/2000/svg"
 width="1242.000000pt" height="1242.000000pt" viewBox="0 0 1242.000000 1242.000000"
 preserveAspectRatio="xMidYMid meet">
<metadata>
Created by potrace 1.11, written by Peter Selinger 2001-2013
</metadata>
<g transform="translate(0.000000,1242.000000) scale(0.100000,-0.100000)"
fill="#000000" stroke="none">
<path d="M8498 10095 c-2 -2 -21 -5 -43 -8 -22 -3 -56 -9 -75 -12 -19 -4 -41
-7 -47 -7 -7 -1 -13 -5 -13 -9 0 -8 -40 0 -55 11 -22 17 -88 15 -107 -2 -7 -7
-20 -14 -28 -16 -8 -2 -21 -11 -28 -20 -7 -9 -15 -15 -18 -13 -3 1 -16 -6 -28
-16 -12 -11 -37 -28 -54 -39 -27 -15 -36 -16 -52 -6 -31 19 -63 15 -131 -18
-57 -27 -64 -28 -95 -15 -18 7 -35 11 -38 7 -3 -3 -6 0 -6 7 0 7 -4 10 -9 7
-5 -4 -11 -2 -13 3 -3 11 -56 24 -103 25 -16 1 -37 8 -45 17 -47 49 -113 65
-149 36 -8 -7 -16 -11 -18 -9 -3 2 -36 -26 -88 -73 -12 -11 -26 -28 -31 -37
-9 -16 -12 -16 -38 -3 -17 9 -38 12 -50 8 -12 -4 -28 -8 -36 -9 -8 -2 -20 -11
-27 -20 -7 -10 -13 -14 -13 -10 0 4 -15 -2 -34 -13 -18 -12 -41 -21 -50 -21
-10 0 -14 -5 -10 -11 4 -7 1 -10 -7 -7 -8 3 -25 1 -38 -4 -13 -5 -41 -11 -62
-13 -21 -3 -51 -10 -66 -17 -15 -6 -33 -12 -40 -14 -21 -4 -73 -45 -73 -56 0
-6 -3 -8 -7 -5 -3 4 -16 -5 -29 -18 -13 -14 -29 -25 -35 -25 -7 0 -10 -3 -6
-6 11 -11 -45 -55 -57 -45 -18 15 -65 5 -91 -19 -13 -13 -22 -27 -19 -31 3 -5
1 -9 -3 -9 -11 0 -34 -60 -27 -71 3 -5 0 -9 -6 -9 -6 0 -9 -4 -5 -9 3 -5 0
-13 -6 -16 -5 -4 -8 -13 -5 -20 2 -7 2 -16 -2 -19 -6 -6 -8 -17 -17 -66 -2
-14 -4 -27 -5 -30 -2 -3 -2 -8 -1 -12 0 -4 -3 -18 -8 -31 -7 -17 -16 -23 -33
-22 -12 1 -29 -3 -37 -9 -8 -6 -17 -11 -20 -10 -3 0 -13 -9 -22 -20 -16 -22
-19 -105 -4 -156 15 -53 17 -88 4 -95 -8 -6 -10 -4 -4 6 5 8 -2 5 -15 -6 -39
-33 -52 -45 -45 -45 3 0 -3 -10 -14 -22 -11 -11 -17 -26 -14 -32 3 -6 3 -8 -1
-4 -5 4 -17 -2 -29 -12 -11 -11 -24 -17 -28 -14 -4 2 -11 -2 -16 -10 -4 -8
-11 -15 -15 -16 -20 -2 -37 -13 -33 -20 3 -4 -2 -11 -11 -14 -8 -3 -12 -10 -9
-16 3 -5 1 -10 -5 -10 -7 0 -10 -7 -6 -15 3 -8 2 -15 -2 -15 -8 0 -14 -36 -16
-97 -1 -19 -9 -37 -20 -45 -47 -32 -69 -56 -72 -79 -1 -13 -3 -24 -4 -24 -4 0
-10 -44 -14 -95 -5 -69 -17 -120 -28 -120 -5 0 -6 -5 -2 -12 4 -6 3 -8 -4 -4
-6 3 -20 -7 -32 -24 -22 -32 -31 -90 -34 -235 -1 -77 -2 -81 -34 -109 -47 -41
-65 -86 -64 -164 0 -64 8 -167 14 -191 4 -15 -126 -136 -181 -168 -25 -14 -49
-31 -53 -37 -4 -6 -8 -7 -8 -2 0 5 -9 1 -20 -9 -11 -10 -20 -15 -20 -11 0 4
-20 -4 -45 -18 -25 -13 -42 -20 -39 -14 4 6 -3 4 -17 -5 -13 -9 -31 -17 -41
-17 -10 0 -18 -4 -18 -10 0 -5 -3 -9 -7 -9 -5 1 -11 0 -15 -1 -5 -1 -12 -4
-18 -5 -5 -1 -11 -3 -12 -5 -3 -2 -18 -5 -56 -14 -12 -3 -28 -8 -35 -13 -6 -4
-16 -8 -22 -8 -5 -1 -17 -4 -25 -7 -19 -8 -131 -41 -177 -52 -10 -3 -19 -5
-20 -6 -2 -2 -7 -4 -13 -5 -5 -1 -11 -3 -12 -4 -2 -2 -14 -4 -27 -7 -14 -2
-30 -9 -36 -14 -7 -5 -14 -7 -18 -4 -3 3 -16 0 -29 -7 -12 -7 -26 -12 -30 -11
-4 1 -28 -7 -53 -18 -25 -11 -45 -17 -45 -13 0 3 -6 1 -13 -5 -7 -6 -26 -13
-42 -16 -15 -3 -31 -9 -34 -13 -3 -4 -15 -10 -26 -11 -11 -2 -21 -8 -23 -12
-2 -5 -10 -6 -18 -3 -8 3 -14 -1 -14 -8 0 -7 -3 -10 -6 -7 -7 7 -188 -71 -192
-84 -2 -4 -7 -6 -12 -3 -5 3 -14 0 -22 -7 -7 -7 -20 -14 -28 -16 -8 -2 -17 -8
-18 -13 -2 -5 -8 -7 -13 -3 -5 3 -9 1 -9 -4 0 -5 -6 -9 -12 -9 -7 0 -44 -18
-83 -40 -38 -21 -87 -47 -107 -58 -20 -10 -35 -23 -32 -27 3 -4 -2 -8 -11 -8
-16 0 -104 -55 -116 -73 -3 -5 -9 -8 -13 -8 -20 3 -26 0 -20 -11 4 -6 3 -8 -4
-4 -6 3 -20 -4 -31 -16 -12 -12 -21 -18 -21 -14 0 4 -21 -9 -46 -29 -26 -19
-51 -35 -56 -35 -5 0 -6 -4 -3 -10 3 -5 -1 -10 -11 -10 -9 0 -27 -11 -40 -25
-13 -14 -27 -26 -31 -27 -22 -2 -32 -11 -26 -22 3 -6 3 -8 -2 -4 -11 11 -47
-11 -39 -24 4 -7 3 -8 -5 -4 -6 4 -14 0 -17 -8 -3 -9 -9 -14 -14 -11 -4 2 -16
-6 -28 -18 -30 -32 -50 -47 -62 -47 -6 0 -9 -4 -5 -9 3 -5 -4 -12 -15 -16 -11
-3 -28 -17 -39 -31 -11 -14 -22 -25 -25 -25 -8 1 -52 -36 -103 -85 -24 -23
-43 -40 -43 -37 0 2 -6 -2 -14 -9 -8 -7 -12 -16 -9 -20 2 -5 -1 -8 -7 -8 -6 0
-43 -31 -83 -70 -39 -38 -75 -70 -79 -70 -5 0 -8 -4 -8 -10 0 -5 -11 -20 -25
-34 -14 -14 -25 -22 -25 -18 0 4 -9 -6 -19 -21 -10 -16 -22 -28 -25 -27 -4 0
-15 -9 -26 -22 -10 -13 -48 -53 -85 -90 -37 -38 -65 -68 -63 -68 3 0 -23 -29
-58 -65 -35 -35 -64 -69 -64 -75 0 -5 -4 -10 -10 -10 -5 0 -10 -7 -10 -16 0
-8 -4 -13 -8 -10 -5 3 -18 -2 -29 -12 -23 -21 -48 -36 -90 -58 -18 -9 -33 -21
-33 -27 0 -6 -3 -8 -6 -4 -4 3 -12 1 -20 -6 -25 -23 -39 -33 -44 -34 -22 -2
-49 -16 -45 -24 3 -5 -1 -6 -9 -3 -8 3 -24 -4 -35 -15 -12 -12 -21 -18 -21
-15 0 7 -84 -39 -88 -49 -2 -4 -8 -5 -13 -1 -5 3 -9 0 -9 -5 0 -6 -3 -11 -7
-10 -14 2 -53 -13 -53 -20 0 -4 -6 -8 -12 -8 -7 0 -42 -14 -78 -30 -36 -17
-68 -31 -73 -32 -4 -1 -24 -10 -44 -21 -21 -11 -43 -20 -50 -20 -7 0 -13 -5
-13 -12 0 -6 -3 -8 -7 -5 -3 4 -17 0 -30 -8 -13 -9 -23 -13 -23 -11 0 3 -26
-8 -57 -24 -32 -17 -63 -30 -70 -30 -6 0 -18 -7 -27 -15 -8 -9 -18 -15 -21
-15 -10 1 -80 -34 -87 -44 -4 -6 -8 -8 -8 -3 0 10 -100 -45 -100 -56 0 -4 -4
-6 -9 -2 -5 3 -15 -1 -23 -8 -7 -8 -19 -12 -26 -9 -6 2 -12 -1 -12 -6 0 -5
-13 -15 -30 -22 -16 -7 -30 -16 -30 -21 0 -5 -6 -9 -14 -9 -7 0 -19 -7 -26
-15 -7 -8 -16 -12 -21 -9 -5 3 -12 -2 -15 -10 -3 -9 -10 -14 -14 -11 -5 3 -13
-3 -19 -12 -6 -10 -11 -14 -11 -10 0 9 -73 -43 -78 -55 -2 -5 -9 -8 -15 -8 -7
0 -23 -9 -37 -20 -14 -11 -49 -38 -77 -59 -29 -21 -50 -41 -47 -44 3 -3 -4 -8
-16 -12 -11 -4 -31 -16 -43 -28 -12 -12 -46 -43 -74 -68 -29 -26 -49 -49 -46
-53 4 -3 1 -6 -6 -6 -15 0 -71 -57 -63 -64 3 -3 -3 -6 -13 -6 -10 0 -16 -2
-13 -5 3 -3 -15 -26 -39 -50 -24 -25 -41 -45 -37 -45 3 0 -4 -9 -17 -20 -13
-10 -21 -19 -17 -20 3 0 -7 -15 -24 -34 -16 -19 -31 -38 -31 -43 -1 -4 -8 -16
-17 -26 -8 -10 -15 -21 -15 -25 0 -3 -10 -17 -22 -31 -13 -13 -23 -28 -23 -33
0 -6 -9 -21 -20 -35 -11 -14 -17 -29 -14 -34 3 -5 1 -9 -5 -9 -8 0 -23 -31
-24 -50 0 -3 -7 -11 -14 -18 -7 -8 -11 -17 -8 -22 3 -5 1 -11 -5 -15 -6 -4 -8
-11 -5 -16 4 -5 2 -9 -3 -9 -7 0 -18 -25 -37 -90 -1 -3 -5 -12 -8 -20 -17 -41
-47 -181 -52 -245 -2 -22 -5 -40 -6 -40 -1 0 -2 -19 -3 -42 -1 -24 -5 -46 -9
-49 -10 -10 -9 -112 1 -118 5 -3 7 -20 6 -38 -1 -18 0 -37 4 -43 7 -11 12 -40
13 -68 0 -9 4 -17 10 -17 5 0 8 -3 8 -7 -4 -25 4 -44 30 -72 24 -26 35 -31 58
-26 49 11 56 10 59 -5 2 -8 6 -28 9 -45 3 -16 8 -37 12 -45 3 -8 7 -17 7 -20
5 -20 34 -50 48 -50 10 0 18 -5 18 -11 0 -13 140 -10 158 4 6 5 12 7 12 4 0
-7 122 25 217 58 46 16 83 33 83 38 0 4 5 5 11 1 6 -3 25 4 41 16 17 13 28 18
24 11 -5 -7 -1 -9 8 -5 9 3 16 10 16 15 0 5 3 8 8 8 14 -3 72 23 72 32 0 5 3
8 8 7 13 -4 52 13 52 23 0 5 3 8 8 7 9 -3 75 32 83 44 3 5 9 9 13 9 12 -1 76
33 76 41 0 5 4 7 9 4 5 -3 14 1 21 9 7 8 18 15 25 15 8 0 26 11 42 24 15 13
30 23 33 23 8 -1 64 36 72 48 4 5 8 6 8 1 0 -5 8 -2 18 7 9 8 37 18 62 22 51
8 75 13 75 15 0 1 16 3 35 5 34 3 99 13 150 21 29 5 64 10 140 18 30 4 71 9
90 11 37 6 139 15 205 19 22 1 45 4 50 7 12 7 479 3 555 -5 30 -3 77 -10 104
-15 27 -5 59 -8 72 -6 13 1 24 -1 24 -5 0 -5 11 -7 25 -5 14 1 25 -1 25 -4 0
-4 17 -7 38 -8 20 -1 51 -4 67 -8 17 -4 46 -8 65 -10 19 -2 35 -4 35 -5 0 -1
18 -4 40 -6 22 -3 58 -7 80 -9 122 -14 195 -18 335 -18 132 1 285 7 285 13 0
1 14 3 30 5 69 8 100 13 100 15 0 0 19 3 43 4 23 2 42 1 42 -1 0 -3 -20 -31
-44 -63 -24 -31 -47 -67 -51 -79 -3 -11 -10 -21 -15 -21 -8 0 -34 -59 -31 -72
0 -5 -4 -8 -10 -8 -6 0 -9 -7 -5 -15 3 -8 1 -15 -5 -15 -6 0 -9 -7 -5 -15 3
-8 2 -15 -2 -15 -4 0 -14 -20 -21 -45 -16 -53 -7 -114 20 -143 10 -12 19 -25
19 -29 1 -19 230 -164 230 -146 0 4 4 2 9 -5 4 -7 18 -14 29 -15 12 -1 22 -6
22 -11 0 -5 3 -6 7 -3 3 4 12 2 20 -4 7 -6 13 -8 13 -4 0 4 7 2 15 -5 8 -6 18
-9 24 -6 5 3 11 1 13 -5 2 -6 16 -12 31 -12 15 -1 27 -5 27 -8 0 -3 6 -6 13
-7 6 0 23 -3 37 -7 14 -4 34 -8 45 -10 11 -2 20 -4 20 -5 0 -2 9 -4 20 -5 11
-2 34 -6 50 -10 17 -4 45 -8 62 -9 18 0 33 -4 33 -7 0 -3 15 -6 33 -7 17 -1
52 -4 77 -6 25 -3 77 -7 115 -10 39 -2 78 -7 88 -11 23 -9 525 6 627 20 19 2
71 7 115 11 44 3 82 8 85 9 3 2 43 6 90 10 47 4 90 11 96 16 6 5 13 6 17 3 3
-3 30 -1 59 5 30 7 68 14 84 17 73 13 204 53 279 85 17 7 32 13 35 14 52 19
70 28 70 34 0 4 6 8 13 8 25 0 227 136 288 194 48 46 97 114 122 169 28 64 54
164 56 218 1 22 3 23 74 16 102 -9 432 -2 477 11 8 2 44 7 80 10 125 13 326
50 440 83 30 8 60 16 65 17 69 15 308 104 313 117 2 4 7 6 12 3 4 -3 39 10 76
27 38 18 71 32 74 33 8 1 169 84 230 118 30 17 71 39 90 50 19 10 40 23 46 28
13 11 64 8 64 -3 0 -4 5 -8 11 -8 6 0 49 -21 97 -48 93 -51 252 -123 367 -167
39 -15 79 -31 90 -35 69 -28 108 -40 116 -35 5 4 9 1 9 -6 0 -7 3 -9 7 -6 3 4
11 3 17 -2 6 -5 70 -28 141 -51 201 -64 262 -81 325 -94 14 -3 54 -12 90 -21
36 -9 74 -18 85 -20 11 -2 58 -10 105 -19 136 -24 152 -26 395 -52 198 -21
727 -6 828 22 10 3 30 7 45 9 39 5 115 23 143 34 13 5 27 9 32 10 39 5 208
111 200 124 -3 6 -2 7 4 4 5 -3 20 7 32 24 12 16 26 27 31 24 11 -7 39 34 45
64 2 12 13 33 25 48 19 24 38 96 31 118 -2 6 -5 17 -6 25 -2 8 -4 17 -5 20 -1
3 -3 10 -4 15 -3 26 -32 75 -44 75 -7 0 -11 4 -8 8 3 5 -4 16 -15 25 -10 9
-19 15 -19 12 0 -10 -36 32 -49 58 -8 15 -23 36 -33 47 -10 11 -16 20 -12 20
4 0 -4 10 -17 23 -14 12 -26 27 -28 32 -9 24 -115 134 -124 128 -6 -3 -7 -1
-4 4 8 13 -77 85 -88 75 -3 -4 -5 -2 -3 3 2 6 0 11 -5 12 -4 2 -18 13 -30 25
-35 36 -111 93 -103 77 4 -8 -1 -5 -11 6 -22 24 -93 78 -93 71 0 -3 -12 6 -27
20 -15 14 -61 47 -103 74 -41 27 -81 54 -88 60 -7 6 -16 9 -21 6 -5 -3 -12 1
-15 10 -3 8 -10 13 -15 10 -5 -3 -12 1 -15 10 -3 8 -10 13 -15 10 -5 -3 -14 1
-21 10 -7 8 -19 13 -27 10 -8 -3 -11 -1 -8 4 5 9 -1 12 -21 9 -4 0 -10 3 -13
8 -7 11 -99 56 -103 51 -2 -2 -14 7 -28 20 -13 12 -30 20 -37 18 -7 -3 -13 -1
-13 4 0 6 -6 10 -14 10 -7 0 -19 7 -26 15 -7 9 -19 14 -26 11 -7 -3 -18 1 -24
9 -10 12 -50 27 -66 24 -4 0 -10 4 -13 9 -5 7 -118 62 -141 68 -33 9 -50 18
-50 26 0 6 -6 8 -14 5 -8 -3 -16 -2 -18 2 -4 10 -140 76 -150 73 -5 -1 -8 3
-8 8 0 6 -9 10 -20 10 -11 0 -20 4 -20 9 0 10 -39 27 -52 23 -5 -1 -8 3 -8 9
0 5 -15 16 -34 24 -18 8 -49 30 -67 50 -18 19 -38 35 -44 35 -5 0 -21 17 -35
36 -14 20 -33 45 -42 55 -10 10 -18 24 -18 29 0 6 -5 10 -12 10 -6 0 -9 3 -5
6 3 4 -5 26 -18 49 -13 24 -21 46 -18 49 4 3 1 6 -5 6 -6 0 -9 7 -6 15 4 8 2
15 -3 15 -5 0 -9 8 -10 18 -1 18 -10 57 -13 57 -3 0 -11 40 -14 70 -2 17 -5
30 -6 30 -1 0 -3 11 -5 25 -12 87 -15 109 -21 145 -3 22 -7 54 -10 70 -2 17
-6 44 -9 60 -2 17 -6 41 -8 55 -2 14 -7 34 -10 45 -3 11 -8 31 -11 45 -20 101
-45 172 -78 221 -15 23 -16 28 -2 47 8 12 13 26 9 31 -3 5 -1 12 3 15 10 6 4
56 -7 56 -3 0 -7 11 -7 24 -2 20 4 26 26 31 26 6 98 68 101 87 2 12 6 28 9 31
6 7 8 42 2 51 -19 31 -8 47 51 68 47 17 66 31 93 67 18 25 32 51 29 58 -2 7 0
15 5 18 4 3 7 21 6 40 -2 21 1 35 8 35 8 0 8 2 0 8 -22 14 -20 38 5 61 14 13
20 20 12 16 -9 -6 -12 -4 -7 4 4 6 11 9 15 7 8 -5 47 33 72 71 l15 21 57 -39
c73 -50 74 -42 2 11 -52 38 -54 42 -51 81 3 42 -10 93 -29 116 -5 7 -16 19
-23 28 -7 8 -10 15 -7 15 3 0 1 9 -5 20 -6 11 -7 20 -2 20 5 0 15 11 22 25 7
14 15 23 18 20 5 -5 67 62 67 73 0 4 3 12 7 18 4 6 6 21 3 33 -5 25 -36 81
-46 81 -4 0 -9 9 -12 20 -3 11 -2 20 2 20 9 0 44 80 41 94 -1 5 3 12 9 15 22
14 30 126 10 162 -5 11 -7 19 -4 19 3 0 -1 12 -9 28 -17 34 -13 108 8 123 27
20 43 220 19 238 -4 3 -10 15 -11 25 -4 24 -63 116 -74 116 -5 0 -8 7 -8 15 0
8 -5 15 -11 15 -14 0 -6 48 16 93 9 19 17 41 19 49 1 7 4 18 7 23 9 15 8 105
-1 105 -4 0 -10 9 -13 19 -5 22 -65 63 -79 55 -4 -3 -8 0 -8 5 0 6 -9 11 -19
11 -12 0 -23 11 -30 31 -6 17 -20 33 -31 36 -12 3 -22 17 -26 38 -3 18 -15 43
-25 54 -11 12 -17 21 -13 21 9 0 -48 55 -71 68 -15 8 -19 24 -20 88 -1 44 -4
81 -5 84 -1 3 -2 8 -2 11 1 4 -10 19 -23 33 -13 14 -21 26 -17 26 4 0 -22 27
-57 60 -55 51 -185 137 -201 133 -3 -1 -5 31 -6 70 0 44 -5 72 -12 75 -7 2
-10 8 -7 12 9 15 -46 58 -84 66 -48 10 -80 14 -113 15 -15 0 -27 3 -26 7 6 22
-17 90 -35 105 -12 10 -16 16 -9 12 6 -3 12 -3 12 0 0 24 -133 40 -149 18 -8
-11 -35 -10 -43 1 -8 12 -98 16 -98 5 0 -5 -7 -6 -15 -3 -8 3 -20 2 -27 -2 -7
-4 -22 -9 -35 -10 -13 -2 -31 -5 -40 -8 -14 -4 -23 6 -40 44 -12 28 -30 53
-40 57 -10 3 -26 13 -35 21 -10 8 -18 12 -18 7 0 -4 -7 -2 -15 5 -8 7 -15 9
-15 5 0 -4 -7 -2 -15 5 -8 7 -15 9 -15 5 0 -4 -6 -3 -13 3 -13 11 -67 21 -147
27 -25 1 -48 3 -52 4 -5 1 -8 8 -8 16 0 19 -46 65 -68 66 -38 4 -132 6 -134 4z"/>
<path d="M10550 6946 c0 -2 14 -14 30 -26 17 -12 30 -19 30 -16 0 2 -13 14
-30 26 -16 12 -30 19 -30 16z"/>
<path d="M10657 6859 c7 -7 15 -10 18 -7 3 3 -2 9 -12 12 -14 6 -15 5 -6 -5z"/>
<path d="M10390 6776 c0 -2 8 -10 18 -17 15 -13 16 -12 3 4 -13 16 -21 21 -21
13z"/>
</g>
</svg>
